<svg width="80" height="80" viewBox="0 0 80 80" fill="none" xmlns="http://www.w3.org/2000/svg">
<path d="M54.4 25.92C59.52 31.36 80 40 80 40C80 40 59.52 48.96 54.4 54.4C48.96 59.52 40 80 40 80C40 80 31.04 59.52 25.92 54.4C20.8 48.96 0 40 0 40C0 40 20.8 31.36 25.92 25.92C31.04 20.8 40 0 40 0C40 0 48.96 20.8 54.4 25.92Z" fill="#5C548C"/>
<path d="M56.3655 40.4359C56.1845 46.4095 62.8822 62.8823 62.8822 62.8823C62.8822 62.8823 46.2285 56.3656 40.2548 56.5466C34.2812 56.3656 17.6274 62.8823 17.6274 62.8823C17.6274 62.8823 24.1441 46.2285 24.1441 40.4359C24.3251 34.4622 17.6274 17.6274 17.6274 17.6274C17.6274 17.6274 34.2812 24.5062 40.2548 24.3251C46.0474 24.3251 62.8822 17.6274 62.8822 17.6274C62.8822 17.6274 56.1845 34.4622 56.3655 40.4359Z" fill="#5C548C"/>
</svg>
